<svg width="422" height="272" viewBox="0 0 422 272" fill="none" xmlns="http://www.w3.org/2000/svg">
<g clip-path="url(#clip0_1_3)">
<path fill-rule="evenodd" clip-rule="evenodd" d="M140.998 105.078C133.02 105.078 126.54 111.581 126.54 119.59C126.54 127.599 133.02 134.171 140.998 134.171C142.558 134.171 144.092 133.91 145.567 133.418C169.113 169.653 215.835 178.015 250.045 158.403C251.045 157.83 251.435 156.395 250.863 155.392C250.292 154.388 248.863 153.997 247.863 154.57C215.704 173.005 171.802 165.363 149.454 131.364C153.086 128.716 155.456 124.425 155.456 119.59C155.456 111.581 148.977 105.078 140.998 105.078Z" fill="url(#paint0_linear_1_3)"/>
<path fill-rule="evenodd" clip-rule="evenodd" d="M250.045 23.4115C248.222 23.6441 247.673 26.6521 249.295 27.5187C275.044 43.2767 289.421 74.1119 283.121 105.283C282.367 105.154 281.583 105.078 280.802 105.078C272.824 105.078 266.344 111.582 266.344 119.59C266.344 127.599 272.824 134.171 280.802 134.171C288.78 134.171 295.26 127.599 295.26 119.59C295.26 113.931 292.026 109.026 287.281 106.652C294.197 73.5006 278.977 40.5412 251.546 23.7539C251.182 23.5215 250.748 23.4007 250.318 23.4116C250.226 23.4058 250.137 23.4057 250.045 23.4115Z" fill="url(#paint1_linear_1_3)"/>
<path fill-rule="evenodd" clip-rule="evenodd" d="M210.9 6.10352e-05C203.207 6.10352e-05 196.953 6.07751 196.511 13.6909C163.539 19.8139 139.515 46.002 134.042 77.0797C133.979 77.3683 133.975 77.6668 134.03 77.957C134.085 78.2472 134.199 78.5233 134.363 78.7685C134.527 79.0138 134.739 79.2231 134.985 79.3841C135.232 79.545 135.509 79.6542 135.799 79.7051C136.089 79.7559 136.386 79.7472 136.673 79.6798C136.959 79.6123 137.229 79.4875 137.466 79.3126C137.704 79.1377 137.903 78.9164 138.053 78.662C138.203 78.4077 138.3 78.1256 138.338 77.8327C143.479 48.6426 165.924 24.0134 196.851 18.0721C198.436 24.371 204.142 29.0247 210.9 29.0247C218.878 29.0247 225.358 22.521 225.358 14.5124C225.358 6.50381 218.878 6.10352e-05 210.9 6.10352e-05Z" fill="url(#paint2_linear_1_3)"/>
<path d="M10.0825 239.336V271.351H0V196.72H34.509C46.7743 196.72 59.0395 200.981 59.0395 216.781C59.0395 227.799 53.4266 231.852 48.6452 234.659C52.9069 236.426 57.1686 238.297 57.5843 248.691L58.208 262.204C58.3119 266.361 58.8316 267.92 61.9499 269.687V271.351H49.5807C48.1255 266.777 47.8137 255.447 47.8137 252.641C47.8137 246.508 46.5664 239.336 34.509 239.336H10.0825ZM10.0825 205.347V230.709H33.4696C40.8495 230.709 48.6452 228.838 48.6452 217.82C48.6452 206.282 40.2259 205.347 35.2366 205.347H10.0825ZM115.48 249.627H85.545L77.7492 271.351H67.355L95.4195 196.72H106.853L133.878 271.351H122.86L115.48 249.627ZM88.6632 240.687H111.842L100.825 207.841H100.617L88.6632 240.687ZM143.649 271.351V196.72H173.896C193.334 196.72 205.287 211.479 205.287 232.996C205.287 249.73 198.011 271.351 173.481 271.351H143.649ZM153.731 205.347V262.723H173.273C186.37 262.723 194.893 252.433 194.893 233.619C194.893 214.806 186.266 205.347 172.545 205.347H153.731ZM218.696 271.351V196.72H248.943C268.38 196.72 280.334 211.479 280.334 232.996C280.334 249.73 273.058 271.351 248.527 271.351H218.696ZM228.778 205.347V262.723H248.319C261.416 262.723 269.94 252.433 269.94 233.619C269.94 214.806 261.312 205.347 247.592 205.347H228.778ZM334.904 249.627H304.968L297.173 271.351H286.778L314.843 196.72H326.277L353.302 271.351H342.284L334.904 249.627ZM308.087 240.687H331.266L320.248 207.841H320.04L308.087 240.687ZM412.029 257.006V196.72H421.8V271.351H410.47L372.531 211.064H372.323V271.351H362.553V196.72H374.506L411.822 257.006H412.029Z" fill="#111111"/>
</g>
<defs>
<linearGradient id="paint0_linear_1_3" x1="126.54" y1="105.078" x2="251.128" y2="105.078" gradientUnits="userSpaceOnUse">
<stop stop-color="#7D141D"/>
<stop offset="1" stop-color="#FF1E27"/>
</linearGradient>
<linearGradient id="paint1_linear_1_3" x1="248.333" y1="23.4073" x2="295.26" y2="23.4073" gradientUnits="userSpaceOnUse">
<stop stop-color="#7D141D"/>
<stop offset="1" stop-color="#FF1E27"/>
</linearGradient>
<linearGradient id="paint2_linear_1_3" x1="133.992" y1="6.10352e-05" x2="225.358" y2="6.10352e-05" gradientUnits="userSpaceOnUse">
<stop stop-color="#7D141D"/>
<stop offset="1" stop-color="#FF1E27"/>
</linearGradient>
<clipPath id="clip0_1_3">
<rect width="421.8" height="271.471" fill="white"/>
</clipPath>
</defs>
</svg>
